# xmcd
#
# Track frame offsets: 
#        150
#        32046
#        58923
#        83346
#        85137
#        102723
#        124897
#        149918
#        171603
#        187494
#        218305
#        244321
#        262522
#
# Disc length: 3931 seconds
#
# Revision: 0
# Processed by: cddbd v1.5.2PL0 Copyright (c) Steve Scherf et al.
# Submitted via: ExactAudioCopyFreeDBPlugin 1.0
#
DISCID=c20f590d
DTITLE=Darrell Nulisch - One Night In Boston
DYEAR=2015
DGENRE=Blues
TTITLE0=The Warm Up (Blues Fot J)
TTITLE1=Love At First Sight
TTITLE2=Morning Train
TTITLE3=Talk
TTITLE4=Hum Bugg'n Me
TTITLE5=After All
TTITLE6=Pouring Water
TTITLE7=No Use Cry'n
TTITLE8=Lonely Man
TTITLE9=Love Attack
TTITLE10=Playhouse
TTITLE11=Dead Love
TTITLE12=What Have I Done Wrong
EXTD=
EXTT0=
EXTT1=
EXTT2=
EXTT3=
EXTT4=
EXTT5=
EXTT6=
EXTT7=
EXTT8=
EXTT9=
EXTT10=
EXTT11=
EXTT12=
PLAYORDER=
